<!--?xml version="1.0" standalone="no"?--><svg version="1.0" xmlns="http://www.w3.org/2000/svg" width="300.000000pt" height="199.000000pt" viewBox="0 0 300.000000 199.000000" preserveAspectRatio="xMidYMid meet">
<metadata>
  <rdf:rdf xmlns:rdf="http://www.w3.org/1999/02/22-rdf-syntax-ns#" xmlns:rdfs="http://www.w3.org/2000/01/rdf-schema#" xmlns:dc="http://purl.org/dc/elements/1.1/">
    <rdf:description dc:title="farmer in farm" dc:publisher="Hiox" dc:date="2015-04-17" dc:format="image/svg+xml" dc:language="en">
      <dc:creator>
        <rdf:bag>
          <rdf:li>svgimages.com</rdf:li>
        </rdf:bag>
      </dc:creator>
    </rdf:description>
  </rdf:rdf>
</metadata>
<g transform="translate(0.000000,199.000000) scale(0.100000,-0.100000)" fill="#262626" stroke="none">
<path d="M2390 1974 c-19 -9 -46 -20 -59 -25 -22 -9 -23 -8 -10 8 22 27 -133
-103 -258 -217 -75 -68 -126 -107 -146 -112 -40 -8 -80 -53 -72 -79 4 -12 -3
-31 -20 -52 -21 -28 -23 -36 -12 -46 11 -8 19 -3 39 24 23 33 26 34 40 18 9
-10 23 -51 32 -92 28 -125 67 -176 144 -187 26 -3 57 -15 68 -26 20 -17 26
-18 62 -7 57 17 69 9 77 -53 4 -29 13 -72 21 -96 8 -23 14 -46 14 -51 0 -9
-36 -26 -86 -40 l-30 -8 4 58 c4 58 4 59 -22 61 -14 0 -31 1 -38 2 -6 1 -18
-25 -27 -56 -9 -31 -19 -59 -22 -63 -10 -10 -216 -35 -286 -35 -61 0 -63 1
-63 26 0 31 -94 133 -172 187 l-53 35 -90 -14 c-174 -29 -184 -29 -253 4 -62
30 -63 30 -125 16 -34 -8 -68 -16 -75 -19 -9 -3 -10 0 -2 15 21 40 7 67 -48
90 -27 12 -44 4 -118 -52 -75 -56 -121 -49 -74 12 27 34 25 63 -6 99 -32 38
-48 40 -28 4 31 -62 12 -84 -45 -52 -23 12 -48 19 -60 16 -31 -8 -28 30 4 45
27 12 34 28 12 28 -22 0 -88 -75 -82 -92 4 -10 -4 -23 -23 -37 -24 -17 -39
-20 -76 -15 -51 7 -50 7 -36 34 14 26 -8 76 -49 114 -34 33 -38 29 -16 -14 14
-28 14 -31 -6 -51 -13 -13 -19 -29 -17 -44 4 -21 2 -23 -35 -22 -34 2 -42 7
-58 36 -16 31 -17 37 -3 69 17 42 13 49 -21 34 -52 -24 -67 -111 -27 -155 15
-17 14 -20 -10 -40 -14 -12 -34 -44 -44 -72 -20 -58 -49 -102 -81 -128 -31
-25 -29 -53 6 -88 36 -35 51 -36 88 -5 34 28 47 24 71 -24 11 -23 29 -38 52
-45 37 -13 47 -32 49 -100 1 -34 10 -49 54 -96 51 -54 66 -82 123 -222 15 -37
33 -71 39 -75 20 -12 56 -145 49 -180 -4 -18 -10 -32 -15 -32 -4 0 -10 -9 -14
-20 -6 -19 -6 -19 -58 0 -74 28 -118 25 -87 -6 6 -6 -19 -8 -67 -6 -83 4 -108
-7 -81 -34 14 -14 22 -14 89 -1 125 26 148 28 158 10 7 -13 27 -17 85 -19 68
-2 80 1 105 22 32 26 57 29 114 13 44 -12 59 -5 32 15 -16 11 -12 14 40 19 31
3 69 1 83 -4 35 -13 116 7 108 27 -3 8 1 14 10 14 12 0 15 -6 11 -21 -5 -19
-2 -20 41 -16 26 3 67 10 92 15 36 8 48 7 61 -4 18 -17 56 -7 78 20 15 18 41
22 41 6 0 -5 9 -10 19 -10 11 0 23 -5 26 -10 4 -7 -9 -10 -35 -8 -36 3 -43 0
-51 -21 l-9 -23 80 7 c67 6 85 4 106 -10 20 -13 29 -14 38 -5 8 8 6 15 -7 25
-16 12 -10 14 50 20 37 3 77 7 88 8 22 2 35 47 14 47 -17 0 22 29 40 30 11 0
11 -4 -2 -18 -24 -26 -21 -35 8 -28 18 5 25 2 25 -9 0 -8 7 -15 15 -15 8 0 25
-5 39 -12 24 -10 24 -12 8 -24 -15 -12 -14 -13 16 -14 17 0 32 5 32 10 0 6 15
10 33 10 21 0 28 3 19 9 -10 6 -4 10 19 15 17 3 37 2 43 -3 13 -11 94 -3 102
10 3 5 -25 9 -63 10 -40 1 -58 4 -45 7 30 9 27 21 -11 50 -34 25 -53 28 -59
10 -3 -8 -7 -9 -11 -2 -7 11 112 91 173 116 19 8 41 27 49 41 13 24 12 29 -2
45 -14 16 -15 32 -7 132 5 63 10 116 10 118 0 1 4 2 9 2 5 0 12 -12 14 -27 3
-22 4 -19 6 12 l3 40 11 -32 c10 -27 11 -12 8 92 l-3 125 36 0 c21 0 42 7 53
19 18 19 63 38 63 26 0 -3 -20 -45 -45 -92 -34 -64 -42 -88 -33 -94 9 -6 7
-19 -9 -56 -42 -99 -45 -115 -23 -138 11 -12 18 -24 14 -27 -7 -7 22 -65 34
-70 10 -3 140 -191 148 -213 6 -14 -70 -55 -101 -55 -8 0 -18 -7 -21 -15 -4
-8 -16 -15 -28 -15 -15 0 -7 9 30 30 69 40 77 51 64 82 -13 27 -48 53 -58 43
-4 -4 1 -13 11 -20 16 -12 11 -13 -40 -9 -98 7 -108 7 -139 -1 -29 -7 -29 -7
-6 -16 15 -6 31 -5 43 2 17 9 21 7 26 -10 6 -24 7 -24 50 -12 17 5 35 5 39 1
5 -4 17 -10 27 -12 14 -2 9 -9 -23 -28 -23 -14 -48 -31 -55 -38 -8 -7 -24 -10
-39 -6 -17 4 -31 0 -43 -11 -16 -16 -16 -18 0 -30 9 -7 17 -14 17 -17 0 -2
-29 -3 -65 -1 -70 4 -88 -10 -27 -22 l37 -7 -30 -13 -30 -13 35 -1 c58 -1 110
18 122 45 14 30 47 40 89 25 42 -15 49 -14 49 5 0 12 6 15 22 11 13 -4 52 5
91 18 46 17 67 21 65 13 -3 -7 -20 -18 -39 -25 -34 -12 -33 -12 25 -12 51 -1
57 -3 46 -16 -17 -20 0 -19 45 2 25 12 34 22 30 34 -7 22 29 29 149 29 69 0
102 5 135 20 24 11 53 20 65 20 17 0 18 2 6 10 -22 14 -54 12 -86 -5 -16 -8
-44 -15 -62 -15 l-33 0 21 22 c11 12 20 25 20 30 0 4 16 24 36 43 34 35 35 37
19 55 -10 11 -25 22 -34 25 -9 3 -43 56 -75 118 -32 61 -77 131 -99 154 -32
33 -40 50 -40 78 0 19 2 38 6 41 3 4 -3 24 -13 45 l-20 38 35 7 c46 8 49 16
27 56 -10 18 -35 74 -56 123 -62 146 -123 258 -158 291 -18 17 -58 48 -88 69
-30 21 -57 40 -59 42 -2 2 1 14 8 27 9 15 11 38 6 64 -6 35 -14 46 -53 72 -43
29 -53 31 -110 28 -40 -3 -68 -10 -79 -20 -15 -16 -15 -20 0 -60 10 -24 17
-71 17 -105 0 -54 2 -62 23 -68 20 -7 19 -8 -11 -12 -19 -3 -40 -2 -47 0 -23
9 -105 174 -105 213 0 19 -5 45 -11 56 -10 18 -3 28 52 85 101 102 183 156
359 232 23 10 22 10 -10 5 -19 -3 -57 -17 -83 -30 -65 -32 -69 -30 -16 8 24
17 74 41 111 52 37 12 68 26 68 31 1 16 -22 16 -60 -1z m-434 -425 c-5 -26 3
-48 38 -113 24 -45 56 -97 69 -117 14 -21 28 -46 32 -58 9 -28 -21 -28 -73 -1
-30 16 -44 31 -55 63 -23 63 -38 126 -35 146 2 10 -8 28 -21 38 -17 14 -21 22
-13 27 7 4 12 2 12 -3 0 -6 7 -11 15 -11 9 0 12 6 9 15 -8 19 2 45 17 45 8 0
9 -11 5 -31z m186 -8 c-14 -25 -18 -28 -26 -14 -6 12 -4 20 10 30 29 21 34 15
16 -16z m87 25 c-2 -1 -19 -8 -38 -14 -29 -10 -32 -10 -21 3 7 8 24 15 38 15
14 0 23 -2 21 -4z m91 -77 c0 -11 -9 -21 -25 -25 -36 -9 -55 2 -25 14 25 11
24 11 -8 11 -20 1 -31 5 -27 11 3 6 -2 13 -11 17 -14 5 -8 9 22 18 35 11 41
10 57 -7 9 -11 17 -29 17 -39z m-32 -42 c39 5 45 3 34 -8 -8 -8 -33 -13 -68
-13 -43 1 -61 6 -77 23 l-22 22 43 -15 c28 -10 59 -13 90 -9z m-65 -59 l29
-15 -24 -28 c-26 -30 -63 -30 -52 0 5 11 -1 15 -20 15 -33 0 -34 16 -1 24 30
8 33 26 5 26 -14 0 -20 7 -20 22 0 21 0 21 28 -4 15 -14 40 -32 55 -40z m179
-65 c69 -53 108 -102 139 -173 13 -30 49 -108 81 -173 32 -65 58 -121 58 -126
0 -4 -33 -18 -72 -31 -40 -13 -78 -27 -84 -32 -7 -5 -15 11 -24 47 -12 52 -30
75 -30 39 0 -9 -14 -38 -31 -64 -28 -43 -38 -50 -91 -65 -33 -9 -62 -15 -64
-12 -3 2 12 39 32 81 39 81 58 97 124 110 32 6 30 3 -28 -34 -34 -22 -62 -45
-62 -51 0 -7 9 -5 23 4 12 9 50 32 85 52 64 37 73 49 46 59 -15 6 -15 8 1 26
17 19 17 23 1 92 -14 56 -15 73 -5 79 10 6 6 17 -13 46 -14 21 -29 47 -32 58
-3 11 -23 31 -44 44 l-37 23 30 -33 c30 -33 80 -118 74 -123 -2 -1 -28 -17
-58 -35 -50 -30 -54 -31 -72 -15 -25 22 -69 112 -69 140 0 15 12 30 35 44 43
27 44 34 5 25 -35 -8 -37 -3 -12 30 19 26 17 27 94 -32z m-150 -5 c-7 -7 -12
-8 -12 -2 0 6 3 14 7 17 3 4 9 5 12 2 2 -3 -1 -11 -7 -17z m-2076 -21 c-4 -17
3 -35 24 -63 16 -21 30 -45 30 -51 0 -19 -24 -16 -42 5 -31 35 -38 58 -27 96
11 39 25 51 15 13z m2006 -39 l4 -41 -33 38 c-18 21 -33 33 -33 27 0 -6 14
-27 30 -46 20 -22 27 -37 20 -41 -14 -9 -13 -10 -44 50 l-25 50 27 6 c41 8 50
1 54 -43z m78 -14 c0 -45 -18 -53 -47 -20 -28 32 -31 73 -5 79 27 6 52 -22 52
-59z m-1880 21 c0 -5 -5 -3 -10 5 -5 8 -10 20 -10 25 0 6 5 3 10 -5 5 -8 10
-19 10 -25z m173 0 c-3 -9 -8 -14 -10 -11 -3 3 -2 9 2 15 9 16 15 13 8 -4z
m87 -30 c34 -18 39 -48 14 -84 -9 -13 -13 -26 -8 -31 19 -19 140 -30 215 -20
103 13 104 13 89 -5 -19 -23 1 -19 72 15 34 16 70 30 79 30 24 0 126 -47 175
-81 72 -49 79 -113 27 -269 -26 -78 -27 -126 -3 -185 6 -16 11 -32 10 -33 -1
-2 9 -16 22 -30 64 -72 89 -114 103 -174 8 -35 23 -90 35 -122 24 -71 24 -68
3 -64 -12 2 -23 23 -35 71 -9 37 -24 77 -32 89 -14 19 -14 23 2 34 14 10 14
14 3 28 -8 9 -21 14 -28 11 -9 -3 -49 26 -101 72 -149 135 -186 176 -234 263
-47 84 -66 85 -28 3 l19 -42 -47 -40 c-80 -69 -139 -96 -207 -95 -164 2 -265
70 -318 214 -9 25 -21 58 -27 74 -6 16 -13 27 -16 24 -9 -10 24 -114 56 -175
22 -43 30 -68 25 -83 -6 -18 -9 -20 -16 -9 -7 12 -9 11 -9 -1 0 -27 21 -92 51
-157 17 -37 29 -81 30 -106 0 -23 13 -80 30 -127 44 -128 43 -124 31 -116 -6
3 -13 -3 -17 -14 -3 -11 -13 -20 -22 -20 -13 0 -14 8 -9 49 5 38 1 64 -14 108
-11 31 -20 65 -20 74 0 8 -11 21 -24 27 -13 6 -26 22 -29 39 -3 15 -9 37 -12
48 -4 11 5 3 20 -18 15 -21 29 -36 32 -34 8 8 -71 147 -82 143 -11 -3 -45 78
-45 106 0 15 4 16 25 8 18 -7 25 -6 25 3 0 22 -15 34 -40 33 -20 -1 -30 9 -52
49 -15 28 -30 73 -33 100 -6 46 -3 56 38 130 25 44 53 100 63 125 22 57 67
115 117 151 46 33 57 35 97 14z m71 -38 c-8 -8 -11 -7 -11 4 0 20 13 34 18 19
3 -7 -1 -17 -7 -23z m213 13 c28 -10 33 -35 12 -62 -15 -20 -109 -34 -151 -24
-27 7 -27 7 21 39 46 31 87 57 91 57 1 0 13 -4 27 -10z m-652 -52 c-15 -15
-26 -4 -18 18 5 13 9 15 18 6 9 -9 9 -15 0 -24z m-78 -34 c-40 -21 -50 -17
-24 11 18 19 26 22 37 14 11 -10 8 -14 -13 -25z m506 15 c0 -5 -4 -9 -10 -9
-5 0 -10 7 -10 16 0 8 5 12 10 9 6 -3 10 -10 10 -16z m1654 -56 l36 -51 -29
-21 -29 -21 -21 55 c-12 31 -21 70 -21 88 0 37 4 33 64 -50z m-1968 -45 c-26
-57 -55 -112 -63 -123 -14 -18 -14 -17 -8 20 4 21 20 68 36 104 16 35 27 67
24 69 -5 5 38 29 55 31 3 1 -17 -45 -44 -101z m-170 33 c-34 -54 -98 -72 -82
-24 7 22 99 88 104 74 2 -5 -8 -28 -22 -50z m1472 -101 c20 -30 31 -62 15 -47
-3 4 -11 0 -17 -8 -10 -14 -22 -14 -106 0 -158 25 -200 38 -216 65 -7 14 -13
33 -14 42 0 9 -18 28 -40 41 l-40 24 67 11 c38 7 93 16 123 20 l55 8 75 -62
c41 -33 85 -76 98 -94z m800 100 c12 -35 17 -62 11 -66 -5 -3 -9 -2 -8 3 5 29
-2 35 -17 14 -14 -19 -14 -25 -3 -32 12 -8 12 -11 -1 -19 -21 -14 -169 -70
-184 -70 -7 0 -21 -9 -31 -20 -20 -22 -75 -28 -75 -7 0 21 39 57 62 57 26 0
116 51 147 84 24 25 24 26 6 46 -10 11 -16 22 -14 24 4 4 82 46 85 46 1 0 11
-27 22 -60z m-2206 25 c-2 -14 -8 -23 -12 -20 -10 6 -78 -99 -86 -132 -6 -24
-36 -39 -55 -28 -6 4 -17 -2 -25 -14 -8 -12 -22 -21 -31 -21 -15 0 -14 2 0 18
18 20 22 42 8 42 -5 0 -14 -7 -21 -15 -7 -9 -15 -13 -17 -11 -3 3 11 19 30 36
20 17 34 37 31 43 -3 9 7 11 35 9 35 -4 44 0 70 29 17 18 35 45 42 61 14 35
38 38 31 3z m-21 -120 c-6 -24 -11 -67 -11 -94 0 -59 -20 -69 -44 -23 -13 25
-13 29 3 39 11 7 26 40 37 85 10 40 20 65 22 54 2 -10 -1 -38 -7 -61z m1910
42 c0 -4 -3 -23 -7 -42 -5 -26 -11 -35 -26 -35 -15 0 -18 4 -13 18 3 9 9 30
12 45 3 17 11 27 20 25 8 -2 14 -6 14 -11z m-792 -137 c0 -13 -1 -13 -8 0 -5
8 -12 26 -15 40 l-7 25 15 -25 c9 -14 15 -32 15 -40z m121 37 c36 -8 91 -18
123 -22 39 -4 57 -11 57 -21 0 -19 -19 -18 -141 7 -95 19 -159 41 -159 55 0 7
18 4 120 -19z m590 -10 c0 -6 -7 -44 -15 -82 -19 -86 -41 -220 -50 -301 -4
-33 -10 -65 -13 -70 -5 -7 -29 -1 -67 16 -48 22 -55 29 -39 34 11 3 31 25 43
47 l23 41 -27 -18 c-33 -21 -142 -36 -167 -23 -27 14 -48 103 -48 200 l0 87
54 6 c30 4 89 16 132 27 44 11 94 24 112 29 19 4 36 11 39 14 11 10 23 7 23
-7z m-560 -36 c52 -11 105 -20 118 -21 18 0 22 -4 18 -17 -17 -56 -26 -161
-16 -187 6 -16 9 -30 7 -32 -1 -2 -32 11 -68 28 -57 27 -71 39 -103 90 -20 32
-36 62 -36 66 0 5 -11 21 -24 35 -14 15 -28 36 -31 48 -6 19 -4 21 16 16 13
-3 67 -15 119 -26z m410 20 c-95 -30 -210 -41 -210 -21 0 6 21 10 48 11 26 0
67 4 92 8 25 5 56 9 70 9 l25 0 -25 -7z m196 1 c8 -5 5 -39 -12 -120 -12 -62
-27 -159 -33 -215 -6 -56 -14 -120 -17 -143 -6 -36 -4 -42 15 -47 29 -7 19
-27 -32 -58 -23 -14 -83 -51 -134 -83 -51 -31 -100 -56 -108 -56 -10 0 16 37
68 98 l85 98 -269 138 c-211 108 -269 142 -269 157 0 10 1 19 3 19 2 0 139
-70 306 -156 167 -85 305 -153 308 -150 3 2 -13 14 -36 26 -23 11 -41 23 -41
25 0 3 13 -1 30 -10 16 -8 31 -15 33 -15 2 0 7 33 10 73 3 39 10 101 16 137 5
36 14 99 20 140 12 86 29 150 39 150 4 0 12 -4 18 -8z m-751 -115 c8 -42 6
-43 -36 -21 -22 11 -29 20 -24 32 4 9 12 30 17 46 l11 29 13 -24 c7 -14 15
-41 19 -62z m74 -56 c11 -20 10 -20 -12 -10 -19 9 -26 22 -31 56 -10 74 -6 81
14 27 10 -28 23 -61 29 -73z m234 27 c-4 -74 -2 -101 11 -133 l17 -40 -25 30
c-31 38 -39 81 -27 137 5 24 12 55 16 71 11 53 14 26 8 -65z m788 -16 c-9 -7
-26 -15 -38 -19 -13 -3 -23 -9 -23 -14 0 -4 17 -1 38 7 32 13 35 13 18 0 -21
-17 -101 -36 -152 -36 -24 0 -34 -4 -31 -12 8 -23 142 3 196 38 l25 17 -25
-32 c-39 -50 -209 -191 -230 -191 -11 0 -22 7 -26 17 -8 19 10 91 38 154 19
41 26 47 77 62 71 22 73 23 108 77 l29 45 6 -50 c5 -40 3 -53 -10 -63z m-2137
-42 c8 -14 16 -38 20 -53 11 -45 -12 -22 -24 24 -6 22 -14 37 -19 35 -4 -3 -8
0 -8 7 0 7 -3 30 -6 52 l-7 40 16 -40 c9 -22 21 -51 28 -65z m2296 58 c0 -5
-4 -8 -10 -8 -5 0 -10 10 -10 23 0 18 2 19 10 7 5 -8 10 -18 10 -22z m-74 -43
c-17 -40 -13 -60 10 -51 16 6 19 -10 4 -19 -5 -3 -10 -13 -10 -22 0 -13 3 -13
15 -3 8 7 15 18 15 25 0 7 9 23 20 36 l19 24 1 -24 c0 -13 -4 -40 -10 -60 -5
-20 -12 -49 -15 -66 l-7 -30 -26 31 c-15 17 -35 34 -44 37 -27 9 -23 69 7 117
14 22 25 45 26 52 0 9 2 9 5 1 3 -6 -2 -28 -10 -48z m-1166 -25 c0 -20 0 -20
-42 1 -53 27 -50 23 -42 42 5 15 10 14 45 -3 26 -14 39 -27 39 -40z m747 28
c-3 -8 -6 -5 -6 6 -1 11 2 17 5 13 3 -3 4 -12 1 -19z m473 -11 c0 -3 -9 -7
-20 -10 -21 -5 -24 1 -14 27 5 13 8 13 20 1 8 -7 14 -16 14 -18z m-1244 -84
c-45 -15 -51 -11 -59 35 l-7 32 53 -26 52 -27 -39 -14z m1134 -3 c0 -31 11
-50 31 -50 10 0 26 -13 35 -29 10 -16 25 -32 34 -34 10 -2 49 -48 89 -100 74
-100 82 -126 61 -183 -15 -38 -38 -53 -81 -54 -20 0 -42 -7 -49 -15 -17 -20
-92 -21 -84 -1 3 8 -10 36 -30 63 -21 30 -43 78 -55 124 -29 107 -37 127 -68
153 l-27 24 58 71 c47 59 60 70 72 60 8 -6 14 -20 14 -29z m-1940 5 c37 -27
31 -31 -18 -14 -20 7 -29 15 -25 25 7 18 3 18 43 -11z m2119 -19 c12 -13 36
-52 52 -87 17 -35 49 -90 71 -123 23 -33 41 -68 42 -78 1 -10 6 -18 11 -17 6
0 9 5 7 11 -1 5 2 7 8 3 17 -10 11 -32 -9 -38 -11 -3 -26 -20 -34 -38 -16 -38
-32 -54 -64 -62 -20 -4 -22 -3 -11 16 6 12 17 44 24 71 l13 50 -37 43 c-20 24
-50 61 -65 81 -16 20 -39 48 -52 62 -24 25 -24 26 -9 78 9 28 19 52 23 52 4 0
18 -11 30 -24z m-1616 7 c-7 -2 -19 -2 -25 0 -7 3 -2 5 12 5 14 0 19 -2 13 -5z
m53 -68 c12 -64 -24 -211 -65 -262 l-25 -32 -21 42 c-12 23 -27 65 -35 92 -7
28 -24 76 -36 107 -13 32 -24 66 -24 76 0 31 45 39 127 23 70 -13 73 -15 79
-46z m317 8 c35 -78 38 -93 23 -128 l-13 -30 -11 40 c-7 22 -12 48 -12 57 0 9
-18 32 -40 49 -56 45 -53 59 16 68 6 0 22 -25 37 -56z m-908 28 c3 -5 1 -12
-5 -16 -5 -3 -10 1 -10 9 0 18 6 21 15 7z m665 -41 c0 -14 -38 -55 -45 -48 -4
4 -10 28 -13 54 l-5 47 32 -22 c17 -12 31 -26 31 -31z m-600 22 c0 -15 -25
-72 -31 -72 -12 0 -16 33 -6 62 5 17 14 25 23 21 8 -3 14 -8 14 -11z m98 -12
l43 -11 -25 -46 c-14 -25 -26 -53 -26 -63 0 -9 21 -39 46 -66 25 -27 60 -67
77 -89 28 -36 95 -105 102 -105 2 0 6 18 10 39 6 38 4 42 -47 94 -84 86 -97
107 -84 137 27 63 66 88 66 43 0 -9 14 -46 32 -82 60 -127 66 -149 52 -190
-12 -34 -11 -36 9 -41 15 -4 18 -8 9 -14 -19 -12 -14 -26 11 -26 12 0 29 -5
37 -10 11 -7 5 -10 -22 -10 -21 0 -38 4 -38 10 0 17 -58 40 -102 40 -47 0 -94
-20 -90 -38 1 -7 -3 -12 -9 -12 -5 0 -7 -4 -4 -10 4 -6 -5 -10 -21 -10 l-26 0
26 34 c26 34 26 35 6 49 -11 7 -17 17 -14 20 4 3 -21 34 -55 69 -56 58 -60 65
-55 98 3 19 1 47 -5 62 -8 22 -6 40 11 87 12 32 26 58 32 56 6 -2 30 -9 54
-15z m152 16 c0 -2 -16 -14 -36 -27 -33 -20 -37 -20 -52 -5 -15 15 -14 16 13
16 17 0 37 5 45 10 16 10 30 13 30 6z m697 -58 c-2 -13 -4 -5 -4 17 -1 22 1
32 4 23 2 -10 2 -28 0 -40z m57 31 c25 -14 39 -33 50 -66 15 -44 15 -45 -2
-30 -9 9 -29 20 -43 26 -19 7 -29 20 -37 50 -5 23 -8 41 -7 41 2 0 20 -9 39
-21z m-219 -19 c16 -16 24 -30 19 -30 -6 0 -20 14 -32 30 -13 17 -21 30 -19
30 2 0 16 -13 32 -30z m508 8 c-6 -11 -41 -10 -47 1 -3 4 8 8 23 7 16 -1 27
-4 24 -8z m-558 -105 c11 -11 31 -46 44 -77 l23 -55 -29 -43 c-23 -35 -35 -44
-63 -46 -19 -2 -39 -7 -44 -12 -4 -5 -32 -6 -60 -3 -48 5 -54 3 -73 -21 -21
-26 -66 -36 -78 -16 -3 5 0 7 8 4 10 -3 20 10 32 43 24 63 39 87 97 151 45 50
48 57 48 107 l0 53 37 -31 c20 -18 46 -42 58 -54z m395 28 c1 -14 13 -63 29
-108 28 -79 28 -81 9 -86 -11 -3 -17 -10 -13 -16 3 -6 1 -11 -5 -11 -7 0 -10
7 -6 15 3 8 1 15 -5 15 -6 0 -8 13 -4 33 4 24 -4 52 -30 112 -20 44 -39 86
-42 93 -4 9 5 8 31 -4 27 -14 36 -24 36 -43z m570 29 c-11 -20 -40 -28 -40
-12 0 7 32 27 48 31 1 1 -2 -8 -8 -19z m73 8 c9 -7 36 -62 58 -123 23 -60 52
-126 65 -145 40 -59 31 -72 -63 -99 -20 -6 -35 -6 -38 0 -4 5 -23 9 -43 9
l-37 1 37 13 c45 16 88 43 88 55 0 5 -20 39 -45 75 -25 37 -45 70 -45 72 0 3
-14 26 -31 51 l-31 45 28 29 c32 33 34 34 57 17z m-1595 -35 c-18 -29 -19 -39
-9 -55 11 -18 10 -18 -11 -7 -33 17 -33 17 -13 39 17 19 17 20 0 20 -17 0 -17
1 -2 18 9 10 25 18 36 19 19 2 19 1 -1 -34z m432 -4 c0 -24 -4 -38 -10 -34 -5
3 -10 15 -10 26 0 10 -4 19 -10 19 -5 0 -10 -21 -10 -47 0 -41 -8 -59 -50
-122 -28 -40 -50 -82 -50 -92 0 -14 -7 -19 -30 -19 -16 0 -30 2 -30 5 0 3 17
24 39 48 40 44 91 157 91 201 0 15 6 26 14 26 7 0 19 7 26 15 21 25 30 17 30
-26z m-280 16 c0 -8 -4 -15 -10 -15 -5 0 -7 7 -4 15 4 8 8 15 10 15 2 0 4 -7
4 -15z m680 -21 c12 -12 11 -14 -11 -14 -14 0 -34 10 -45 21 l-19 22 30 -7
c17 -4 37 -14 45 -22z m242 -32 l87 -48 -74 -74 c-71 -71 -89 -82 -63 -41 9
15 7 27 -10 62 -11 24 -23 56 -26 72 -3 15 -8 38 -11 52 -3 14 -2 25 2 25 5
-1 47 -22 95 -48z m-157 -42 c18 -56 14 -135 -8 -157 -13 -13 -21 -14 -40 -6
-40 19 -131 -31 -120 -65 3 -11 2 -13 -4 -6 -4 6 -17 14 -28 18 -19 7 -19 8
-2 17 21 12 21 32 1 92 l-16 47 43 53 44 53 57 0 58 -1 15 -45z m-885 -25 c7
-9 8 -15 2 -15 -5 0 -12 7 -16 15 -3 8 -4 15 -2 15 2 0 9 -7 16 -15z m-110
-150 c-1 -5 -11 2 -23 18 -13 15 -28 27 -35 27 -7 0 -12 6 -12 14 0 8 -7 16
-15 20 -8 3 -15 11 -15 18 0 7 23 -10 50 -37 28 -27 50 -54 50 -60z m-47 -42
c31 -60 30 -70 -3 -75 -31 -5 -41 6 -15 16 17 6 20 39 5 67 -6 10 -8 19 -6 19
3 0 12 -12 19 -27z m747 19 c0 -13 -12 -22 -22 -16 -10 6 -1 24 13 24 5 0 9
-4 9 -8z m201 -46 l-22 -21 3 25 c2 14 10 28 18 31 24 10 24 -11 1 -35z m-725
-4 c0 -17 -3 -17 -26 -5 -14 7 -38 11 -55 8 -24 -4 -26 -3 -10 4 11 5 36 10
55 10 28 1 36 -3 36 -17z m647 -19 c-13 -2 -33 -2 -45 0 -13 2 -3 4 22 4 25 0
35 -2 23 -4z m-1076 -39 c-3 -3 -12 -4 -19 -1 -8 3 -5 6 6 6 11 1 17 -2 13 -5z" id="node1" class="node"></path>
<path d="M461 1085 c-20 -21 -65 -105 -57 -105 3 0 28 25 57 55 50 53 54 55
105 55 32 0 54 4 54 11 0 7 -25 9 -71 7 -55 -2 -74 -7 -88 -23z" id="node2" class="node"></path>
<path d="M2425 645 c-17 -13 -59 -35 -94 -48 -37 -14 -59 -27 -52 -31 13 -9
154 59 178 86 23 26 4 21 -32 -7z" id="node3" class="node"></path>
<path d="M2530 256 c0 -2 16 -14 36 -27 26 -16 32 -24 22 -30 -10 -6 -10 -11
-1 -20 9 -9 18 -8 37 4 14 10 42 16 66 15 48 -2 77 18 39 26 -49 10 -186 36
-192 36 -4 0 -7 -2 -7 -4z" id="node4" class="node"></path>
<path d="M2490 170 c0 -19 3 -21 12 -12 9 9 9 15 0 24 -9 9 -12 7 -12 -12z" id="node5" class="node"></path>
<path d="M1980 203 c0 -11 67 -29 85 -23 6 2 30 3 55 2 37 0 41 1 22 9 -37 14
-162 24 -162 12z" id="node6" class="node"></path>
<path d="M2085 155 l-40 -13 36 -1 c59 -2 159 11 159 20 0 14 -110 9 -155 -6z" id="node7" class="node"></path>
<path d="M1016 42 l-31 -14 24 -9 c14 -6 37 -6 59 0 19 6 38 8 42 6 4 -2 22 0
41 5 22 6 47 6 69 0 40 -12 51 -5 24 15 -24 18 -183 16 -228 -3z" id="node8" class="node"></path>
</g>
<g transform="translate(0.000000,199.000000) scale(0.100000,-0.100000)" fill="#FFFFFF" stroke="none">


<path d="M1934 1565 c-4 -8 -4 -22 0 -30 3 -9 0 -15 -9 -15 -8 0 -15 5 -15 11
0 5 -5 7 -12 3 -8 -5 -4 -13 13 -27 13 -10 23 -28 21 -38 -3 -20 12 -83 35
-146 11 -32 25 -47 55 -63 52 -27 82 -27 73 1 -4 12 -18 37 -32 58 -13 20 -45
72 -69 117 -35 65 -43 87 -38 113 7 32 -11 45 -22 16z" id="node11" class="node"></path>
<path d="M2126 1557 c-14 -10 -16 -18 -10 -30 8 -14 12 -11 26 14 18 31 13 37
-16 16z" id="node12" class="node"></path>
<path d="M2170 1555 c-11 -13 -8 -13 21 -3 44 15 48 18 17 18 -14 0 -31 -7
-38 -15z" id="node13" class="node"></path>
<path d="M2246 1535 c-30 -9 -36 -13 -22 -18 9 -4 14 -11 11 -17 -4 -6 7 -10
27 -11 32 0 33 0 8 -11 -30 -12 -11 -23 25 -14 30 8 33 35 8 64 -16 17 -22 18
-57 7z" id="node14" class="node"></path>
<path d="M2177 1449 c16 -17 34 -22 77 -23 35 0 60 5 68 13 11 11 5 13 -34 8
-31 -4 -62 -1 -90 9 l-43 15 22 -22z" id="node15" class="node"></path>
<path d="M2140 1432 c0 -15 6 -22 20 -22 28 0 25 -18 -5 -26 -33 -8 -32 -24 1
-24 19 0 25 -4 20 -15 -11 -30 26 -30 52 0 l24 28 -29 15 c-15 8 -40 26 -55
40 -28 25 -28 25 -28 4z" id="node16" class="node"></path>
<path d="M2308 1355 c-25 -33 -23 -38 12 -30 39 9 38 2 -5 -25 -23 -14 -35
-29 -35 -44 0 -28 44 -118 69 -140 18 -16 22 -15 72 15 30 18 56 34 58 35 6 5
-44 90 -74 123 l-30 33 37 -23 c21 -13 41 -33 44 -44 3 -11 18 -37 32 -58 19
-29 23 -40 13 -46 -10 -6 -9 -23 5 -79 16 -69 16 -73 -1 -92 -16 -18 -16 -20
-1 -26 27 -10 18 -22 -46 -59 -35 -20 -73 -43 -85 -52 -14 -9 -23 -11 -23 -4
0 6 28 29 62 51 58 37 60 40 28 34 -66 -13 -85 -29 -124 -110 -20 -42 -35 -79
-32 -81 2 -3 31 3 64 12 53 15 63 22 91 65 17 26 31 55 31 64 0 36 18 13 30
-39 9 -36 17 -52 24 -47 6 5 44 19 84 32 39 13 72 27 72 31 0 5 -26 61 -58
126 -32 65 -68 143 -81 173 -31 71 -70 120 -139 173 -77 59 -75 58 -94 32z" id="node17" class="node"></path>
<path d="M2247 1333 c-4 -3 -7 -11 -7 -17 0 -6 5 -5 12 2 6 6 9 14 7 17 -3 3
-9 2 -12 -2z" id="node18" class="node"></path>
<path d="M161 1284 c-11 -38 -4 -61 27 -96 18 -21 42 -24 42 -5 0 6 -14 30
-30 51 -21 28 -28 46 -24 63 10 38 -4 26 -15 -13z" id="node19" class="node"></path>
<path d="M2128 1301 l-27 -6 25 -50 c31 -60 30 -59 44 -50 7 4 0 19 -20 41
-16 19 -30 40 -30 46 0 6 15 -6 33 -27 l33 -38 -4 41 c-4 44 -13 51 -54 43z" id="node20" class="node"></path>
<path d="M2208 1303 c-26 -6 -23 -47 5 -79 29 -33 47 -25 47 20 0 37 -25 65
-52 59z" id="node21" class="node"></path>
<path d="M360 1295 c0 -5 5 -17 10 -25 5 -8 10 -10 10 -5 0 6 -5 17 -10 25 -5
8 -10 11 -10 5z" id="node22" class="node"></path>
<path d="M545 1269 c-4 -6 -5 -12 -2 -15 2 -3 7 2 10 11 7 17 1 20 -8 4z" id="node23" class="node"></path>
<path d="M543 1221 c-50 -36 -95 -94 -117 -151 -10 -25 -38 -81 -63 -125 -41
-74 -44 -84 -38 -130 3 -27 18 -72 33 -100 22 -40 32 -50 52 -49 25 1 40 -11
40 -33 0 -9 -7 -10 -25 -3 -21 8 -25 7 -25 -8 0 -28 34 -109 45 -106 11 4 90
-135 82 -143 -3 -2 -17 13 -32 34 -15 21 -24 29 -20 18 3 -11 9 -33 12 -48 3
-17 16 -33 29 -39 13 -6 24 -19 24 -27 0 -9 9 -43 20 -74 15 -44 19 -70 14
-108 -5 -41 -4 -49 9 -49 9 0 19 9 22 20 4 11 11 17 17 14 12 -8 13 -12 -31
116 -17 47 -30 104 -30 127 -1 25 -13 69 -30 106 -30 65 -51 130 -51 157 0 12
2 13 9 1 7 -11 10 -9 16 9 5 15 -3 40 -25 83 -32 61 -65 165 -56 175 3 3 10
-8 16 -24 6 -16 18 -49 27 -74 53 -144 154 -212 318 -214 68 -1 127 26 207 95
l47 40 -19 42 c-38 82 -19 81 28 -3 48 -87 85 -128 234 -263 52 -46 92 -75
101 -72 7 3 20 -2 28 -11 11 -14 11 -18 -3 -28 -16 -11 -16 -15 -2 -34 8 -12
23 -52 32 -89 12 -48 23 -69 35 -71 21 -4 21 -7 -3 64 -12 32 -27 87 -35 122
-14 60 -39 102 -103 174 -13 14 -23 28 -22 30 1 1 -4 17 -10 33 -24 59 -23
107 3 185 52 156 45 220 -27 269 -49 34 -151 81 -175 81 -9 0 -45 -14 -79 -30
-71 -34 -91 -38 -72 -15 15 18 14 18 -89 5 -75 -10 -196 1 -215 20 -5 5 -1 18
8 31 25 36 20 66 -14 84 -40 21 -51 19 -97 -14z m77 -120 c0 -7 -22 -11 -54
-11 -51 0 -55 -2 -105 -55 -29 -30 -54 -55 -57 -55 -8 0 37 84 57 105 14 16
33 21 88 23 46 2 71 0 71 -7z" id="node24" class="node"></path>
<path d="M707 1224 c-4 -4 -7 -14 -7 -23 0 -11 3 -12 11 -4 6 6 10 16 7 23 -2
6 -7 8 -11 4z" id="node25" class="node"></path>
<path d="M874 1207 c-11 -6 -42 -26 -68 -44 -48 -32 -48 -32 -21 -39 42 -10
136 4 151 24 21 27 16 52 -12 62 -30 12 -25 12 -50 -3z" id="node26" class="node"></path>
<path d="M254 1176 c-8 -22 3 -33 18 -18 9 9 9 15 0 24 -9 9 -13 7 -18 -6z" id="node27" class="node"></path>
<path d="M170 1135 c-26 -28 -16 -32 24 -11 21 11 24 15 13 25 -11 8 -19 5
-37 -14z" id="node28" class="node"></path>
<path d="M680 1146 c0 -9 5 -16 10 -16 6 0 10 4 10 9 0 6 -4 13 -10 16 -5 3
-10 -1 -10 -9z" id="node29" class="node"></path>
<path d="M2290 1133 c0 -18 9 -57 21 -88 l21 -55 29 21 29 21 -36 51 c-60 83
-64 87 -64 50z" id="node30" class="node"></path>
<path d="M397 1126 c-15 -7 -25 -15 -22 -18 3 -2 -8 -34 -24 -69 -16 -36 -32
-83 -36 -104 -6 -37 -6 -38 8 -20 18 25 114 225 107 224 -3 0 -17 -6 -33 -13z" id="node31" class="node"></path>
<path d="M187 1098 c-65 -45 -78 -88 -22 -74 25 6 79 78 73 97 -2 5 -24 -5
-51 -23z" id="node32" class="node"></path>
<path d="M1460 1118 c-30 -4 -85 -13 -123 -20 l-67 -11 40 -24 c22 -13 40 -32
40 -41 1 -9 7 -28 14 -42 16 -27 58 -40 216 -65 84 -14 96 -14 106 0 6 8 14
12 17 8 4 -3 7 -2 7 4 0 23 -49 79 -120 137 l-75 62 -55 -8z" id="node33" class="node"></path>
<path d="M2425 1109 c-52 -28 -51 -26 -30 -49 18 -20 18 -21 -6 -46 -31 -33
-121 -84 -147 -84 -23 0 -62 -36 -62 -57 0 -21 55 -15 75 7 10 11 24 20 31 20
15 0 163 56 184 70 13 8 13 11 1 19 -11 7 -11 13 3 32 15 21 22 15 17 -14 -1
-5 3 -6 8 -3 7 5 -24 126 -33 126 -1 0 -19 -10 -41 -21z" id="node34" class="node"></path>
<path d="M251 1092 c-7 -16 -25 -43 -42 -61 -26 -29 -35 -33 -70 -29 -28 2
-38 0 -35 -9 3 -6 -11 -26 -31 -43 -19 -17 -33 -33 -30 -36 2 -2 10 2 17 11 7
8 16 15 21 15 14 0 10 -22 -8 -42 -14 -16 -15 -18 0 -18 9 0 23 9 31 21 8 12
19 18 25 14 19 -11 49 4 55 28 8 33 76 138 86 132 4 -3 10 6 12 20 7 35 -17
32 -31 -3z" id="node35" class="node"></path>
<path d="M246 982 c-11 -45 -26 -78 -37 -85 -16 -10 -16 -14 -3 -39 24 -46 44
-36 44 23 0 27 5 70 11 94 6 23 9 51 7 61 -2 11 -12 -14 -22 -54z" id="node36" class="node"></path>
<path d="M2137 1003 c-3 -15 -9 -36 -12 -45 -5 -14 -2 -18 13 -18 15 0 21 9
26 35 9 48 9 50 -7 53 -9 2 -17 -8 -20 -25z" id="node37" class="node"></path>
<path d="M1356 920 c3 -14 10 -32 15 -40 7 -13 8 -13 8 0 0 8 -6 26 -15 40
l-15 25 7 -25z" id="node38" class="node"></path>
<path d="M1380 936 c0 -14 64 -36 159 -55 122 -25 141 -26 141 -7 0 10 -18 17
-57 21 -32 4 -87 14 -123 22 -102 23 -120 26 -120 19z" id="node39" class="node"></path>


<path d="M1395 881 c3 -12 17 -33 31 -48 13 -14 24 -30 24 -35 0 -4 16 -34 36
-66 32 -51 46 -63 103 -90 36 -17 67 -30 68 -28 2 2 -1 16 -7 32 -10 26 -1
131 16 187 4 13 0 17 -18 17 -20 1 -161 28 -237 47 -20 5 -22 3 -16 -16z" id="node42" class="node"></path>

<path d="M2100 863 c-6 -21 -15 -72 -21 -113 -6 -41 -15 -104 -20 -140 -6 -36
-13 -98 -16 -137 -3 -40 -8 -73 -10 -73 -2 0 -17 7 -33 15 -17 9 -30 13 -30
10 0 -2 18 -14 41 -25 23 -12 39 -24 36 -26 -3 -3 -141 65 -308 150 -167 86
-304 156 -306 156 -2 0 -3 -9 -3 -19 0 -15 58 -49 269 -157 l269 -138 -85 -98
c-52 -61 -78 -98 -68 -98 8 0 57 25 108 56 51 32 111 69 134 83 51 31 61 51
32 58 -19 5 -21 11 -15 47 3 23 11 87 17 143 6 56 21 153 33 215 17 81 20 115
12 120 -19 13 -25 9 -36 -29z" id="node44" class="node"></path>
<path d="M1342 834 c-5 -16 -13 -37 -17 -46 -5 -12 2 -21 24 -32 16 -9 33 -16
37 -16 9 0 -5 70 -20 99 l-13 24 -11 -29z" id="node45" class="node"></path>
<path d="M1411 829 c-1 -9 2 -37 5 -62 5 -34 12 -47 31 -56 22 -10 23 -10 12
10 -6 12 -19 45 -29 73 -10 28 -19 44 -19 35z" id="node46" class="node"></path>
<path d="M1685 813 c-4 -16 -11 -47 -16 -71 -12 -56 -4 -99 27 -137 l25 -30
-17 40 c-13 32 -15 59 -11 133 6 91 3 118 -8 65z" id="node47" class="node"></path>
<path d="M2456 800 c-35 -54 -37 -55 -108 -77 -51 -15 -58 -21 -77 -62 -28
-63 -46 -135 -38 -154 4 -10 15 -17 26 -17 21 0 191 141 230 191 l25 32 -25
-17 c-54 -35 -188 -61 -196 -38 -3 8 7 12 31 12 51 0 131 19 152 36 17 13 14
13 -18 0 -21 -8 -38 -11 -38 -7 0 5 10 11 23 14 45 12 55 28 48 82 l-6 50 -29
-45z m1 -148 c-24 -27 -165 -95 -178 -86 -7 4 15 17 52 31 35 13 77 35 94 48
36 28 55 33 32 7z" id="node48" class="node"></path>
<path d="M307 755 c3 -22 6 -45 6 -52 0 -7 4 -10 8 -7 5 2 13 -13 19 -35 12
-46 35 -69 24 -24 -4 15 -12 39 -20 53 -7 14 -19 43 -28 65 l-16 40 7 -40z" id="node49" class="node"></path>
<path d="M2620 763 c0 -13 5 -23 10 -23 13 0 13 11 0 30 -8 12 -10 11 -10 -7z" id="node50" class="node"></path>
<path d="M2571 752 c-1 -7 -12 -30 -26 -52 -30 -48 -34 -108 -7 -117 9 -3 29
-20 44 -37 l26 -31 7 30 c3 17 10 46 15 66 6 20 10 47 10 60 l-1 24 -19 -24
c-11 -13 -20 -29 -20 -36 0 -7 -7 -18 -15 -25 -12 -10 -15 -10 -15 3 0 9 5 19
10 22 15 9 12 25 -4 19 -23 -9 -27 11 -10 51 8 20 13 42 10 48 -3 8 -5 8 -5
-1z" id="node51" class="node"></path>
<path d="M1316 723 c-8 -19 -11 -15 42 -42 42 -21 42 -21 42 -1 0 13 -13 26
-39 40 -35 17 -40 18 -45 3z" id="node52" class="node"></path>
<path d="M2141 714 c0 -11 3 -14 6 -6 3 7 2 16 -1 19 -3 4 -6 -2 -5 -13z" id="node53" class="node"></path>
<path d="M2586 714 c-10 -26 -7 -32 14 -27 24 6 25 10 6 28 -12 12 -15 12 -20
-1z" id="node54" class="node"></path>
<path d="M1317 648 c8 -46 14 -50 59 -35 l39 14 -52 27 -53 26 7 -32z" id="node55" class="node"></path>

<path d="M527 626 c-4 -10 5 -18 25 -25 49 -17 55 -13 18 14 -40 29 -36 29
-43 11z" id="node57" class="node"></path>
<path d="M2636 568 c-15 -52 -15 -53 9 -78 13 -14 36 -42 52 -62 15 -20 45
-57 65 -81 l37 -43 -13 -50 c-7 -27 -18 -59 -24 -71 -11 -19 -9 -20 11 -16 32
8 48 24 64 62 8 18 23 35 34 38 20 6 26 28 9 38 -6 4 -9 2 -8 -3 2 -6 -1 -11
-7 -11 -5 -1 -10 7 -11 17 -1 10 -19 45 -42 78 -22 33 -54 88 -71 123 -28 60
-66 111 -82 111 -4 0 -14 -24 -23 -52z" id="node58" class="node"></path>
<path d="M1048 603 c6 -2 18 -2 25 0 6 3 1 5 -13 5 -14 0 -19 -2 -12 -5z" id="node59" class="node"></path>


<path d="M520 564 c0 -8 5 -12 10 -9 6 4 8 11 5 16 -9 14 -15 11 -15 -7z" id="node62" class="node"></path>
<path d="M1142 536 c7 -59 15 -67 39 -37 25 31 24 36 -12 62 l-32 22 5 -47z" id="node63" class="node"></path>
<path d="M563 542 c-10 -29 -6 -62 6 -62 6 0 31 57 31 72 0 3 -6 8 -14 11 -9
4 -18 -4 -23 -21z" id="node64" class="node"></path>

<path d="M820 550 c-8 -5 -28 -10 -45 -10 -27 0 -28 -1 -13 -16 15 -15 19 -15
52 5 20 13 36 25 36 27 0 7 -14 4 -30 -6z" id="node66" class="node"></path>
<path d="M1543 515 c0 -22 2 -30 4 -17 2 12 2 30 0 40 -3 9 -5 -1 -4 -23z" id="node67" class="node"></path>
<path d="M1572 509 c8 -30 18 -43 37 -50 14 -6 34 -17 43 -26 17 -15 17 -14 2
30 -11 33 -25 52 -50 66 -19 12 -37 21 -39 21 -1 0 2 -18 7 -41z" id="node68" class="node"></path>
<path d="M1372 510 c12 -16 26 -30 32 -30 5 0 -3 14 -19 30 -16 17 -30 30 -32
30 -2 0 6 -13 19 -30z" id="node69" class="node"></path>
<path d="M1846 519 c6 -11 41 -12 47 -1 3 4 -8 7 -24 8 -15 1 -26 -3 -23 -7z" id="node70" class="node"></path>

<path d="M1663 488 c3 -7 22 -49 42 -93 26 -60 34 -88 30 -112 -4 -20 -2 -33
4 -33 6 0 8 -7 5 -15 -4 -8 -1 -15 6 -15 6 0 8 5 5 11 -4 6 2 13 13 16 19 5
19 7 -9 86 -16 45 -28 94 -29 108 0 19 -9 29 -36 43 -26 12 -35 13 -31 4z" id="node72" class="node"></path>
<path d="M2283 478 c-26 -12 -30 -28 -8 -28 8 0 19 9 25 20 6 11 9 20 8 19 -2
0 -13 -5 -25 -11z" id="node73" class="node"></path>
<path d="M2316 461 l-28 -29 31 -45 c17 -25 31 -48 31 -51 0 -2 20 -35 45 -72
25 -36 45 -70 45 -75 0 -12 -43 -39 -88 -55 l-37 -13 37 -1 c20 0 39 -4 43 -9
3 -6 18 -6 38 0 94 27 103 40 63 99 -13 19 -42 85 -65 145 -36 97 -59 135 -81
135 -3 0 -19 -13 -34 -29z m186 -303 c-9 -9 -12 -7 -12 12 0 19 3 21 12 12 9
-9 9 -15 0 -24z" id="node74" class="node"></path>
<path d="M743 458 c-15 -17 -15 -18 2 -18 17 0 17 -1 0 -20 -20 -22 -20 -22
13 -39 21 -11 22 -11 11 7 -10 16 -9 26 9 55 20 35 20 36 1 34 -11 -1 -27 -9
-36 -19z" id="node75" class="node"></path>
<path d="M1180 465 c-7 -8 -19 -15 -26 -15 -8 0 -14 -11 -14 -26 0 -44 -51
-157 -91 -201 -22 -24 -39 -45 -39 -48 0 -3 14 -5 30 -5 23 0 30 5 30 19 0 10
22 52 50 92 42 63 50 81 50 122 0 26 5 47 10 47 6 0 10 -9 10 -19 0 -11 5 -23
10 -26 6 -4 10 10 10 34 0 43 -9 51 -30 26z" id="node76" class="node"></path>
<path d="M916 455 c-3 -8 -1 -15 4 -15 6 0 10 7 10 15 0 8 -2 15 -4 15 -2 0
-6 -7 -10 -15z" id="node77" class="node"></path>
<path d="M1554 441 c11 -11 31 -21 45 -21 22 0 23 2 11 14 -8 8 -28 18 -45 22
l-30 7 19 -22z" id="node78" class="node"></path>
<path d="M1755 425 c3 -14 8 -37 11 -52 3 -16 15 -48 26 -72 17 -35 19 -47 10
-62 -26 -41 -8 -30 63 41 l74 74 -87 48 c-48 26 -90 47 -95 48 -4 0 -5 -11 -2
-25z" id="node79" class="node"></path>

<path d="M796 335 c4 -8 11 -15 16 -15 6 0 5 6 -2 15 -7 8 -14 15 -16 15 -2 0
-1 -7 2 -15z" id="node81" class="node"></path>
<path d="M600 282 c0 -7 7 -15 15 -18 8 -4 15 -12 15 -20 0 -8 5 -14 12 -14 7
0 22 -12 35 -27 12 -16 22 -23 23 -18 0 6 -22 33 -50 60 -27 27 -50 44 -50 37z" id="node82" class="node"></path>
<path d="M640 151 c15 -28 12 -61 -5 -67 -26 -10 -16 -21 15 -16 26 4 30 8 24
26 -9 29 -33 76 -40 76 -2 0 0 -9 6 -19z" id="node83" class="node"></path>
<path d="M1375 161 c-6 -11 9 -23 19 -14 9 9 7 23 -3 23 -6 0 -12 -4 -16 -9z" id="node84" class="node"></path>

<path d="M1600 151 c-8 -3 -16 -17 -18 -31 l-3 -25 22 21 c23 24 23 45 -1 35z" id="node86" class="node"></path>
<path d="M785 119 c-16 -7 -14 -8 10 -4 17 3 41 -1 55 -8 23 -12 26 -12 26 5
0 14 -8 18 -36 17 -19 0 -44 -5 -55 -10z" id="node87" class="node"></path>
<path d="M1478 93 c12 -2 32 -2 45 0 12 2 2 4 -23 4 -25 0 -35 -2 -22 -4z" id="node88" class="node"></path>
<path d="M428 53 c7 -3 16 -2 19 1 4 3 -2 6 -13 5 -11 0 -14 -3 -6 -6z" id="node89" class="node"></path>
</g>
</svg>